<svg width="130" height="32" viewBox="0 0 130 32" fill="none" xmlns="http://www.w3.org/2000/svg">
<g clip-path="url(#clip0_1_712)">
<path d="M38.0649 22.473H47.2973V19.6632H41.3463V9.07983H38.0649V22.473Z" fill="#999999"/>
<path d="M52.7672 20.5998C51.4509 20.5998 50.765 19.4385 50.765 17.6964C50.765 15.9544 51.4509 14.7743 52.7672 14.7743C54.0834 14.7743 54.7879 15.9544 54.7879 17.6964C54.7879 19.4385 54.0834 20.5998 52.7672 20.5998ZM52.7857 22.7727C55.8446 22.7727 57.8468 20.5811 57.8468 17.6964C57.8468 14.8117 55.8446 12.6201 52.7857 12.6201C49.7453 12.6201 47.7061 14.8117 47.7061 17.6964C47.7061 20.5811 49.7453 22.7727 52.7857 22.7727Z" fill="#999999"/>
<path d="M63.1419 25.7886C64.5508 25.7886 65.7929 25.4701 66.6272 24.7209C67.3873 24.0278 67.8878 22.9788 67.8878 21.5365V12.8824H64.9958V13.9127H64.9587C64.4025 13.1072 63.5497 12.6014 62.2891 12.6014C59.9347 12.6014 58.3032 14.587 58.3032 17.3968C58.3032 20.3376 60.2869 21.9486 62.4189 21.9486C63.5683 21.9486 64.2913 21.4803 64.8475 20.8434H64.9216V21.7987C64.9216 22.9601 64.384 23.6344 63.1048 23.6344C62.1037 23.6344 61.6032 23.2036 61.4363 22.6978H58.5072C58.8038 24.7021 60.5279 25.7886 63.1419 25.7886ZM63.1233 19.682C61.9925 19.682 61.2509 18.7454 61.2509 17.3031C61.2509 15.842 61.9925 14.9054 63.1233 14.9054C64.384 14.9054 65.0514 15.9919 65.0514 17.2844C65.0514 18.633 64.4396 19.682 63.1233 19.682Z" fill="#999999"/>
<path d="M73.8346 20.5998C72.5183 20.5998 71.8324 19.4385 71.8324 17.6964C71.8324 15.9544 72.5183 14.7743 73.8346 14.7743C75.1508 14.7743 75.8553 15.9544 75.8553 17.6964C75.8553 19.4385 75.1508 20.5998 73.8346 20.5998ZM73.8531 22.7727C76.912 22.7727 78.9145 20.5811 78.9145 17.6964C78.9145 14.8117 76.912 12.6201 73.8531 12.6201C70.8127 12.6201 68.7734 14.8117 68.7734 17.6964C68.7734 20.5811 70.8127 22.7727 73.8531 22.7727Z" fill="#999999"/>
<path d="M79.7964 22.473H82.8182V12.8824H79.7964V22.473ZM79.7964 11.5524H82.8182V9.07983H79.7964V11.5524Z" fill="#999999"/>
<path d="M84.1289 25.6387H87.1508V21.4803H87.1878C87.7811 22.2857 88.6524 22.7728 89.876 22.7728C92.3602 22.7728 94.0102 20.7872 94.0102 17.6777C94.0102 14.793 92.4714 12.6014 89.9501 12.6014C88.6524 12.6014 87.7255 13.1821 87.0766 14.0438H87.021V12.8824H84.1289V25.6387ZM89.0973 20.4126C87.7996 20.4126 87.0581 19.3449 87.0581 17.7901C87.0581 16.2354 87.7255 15.0553 89.0417 15.0553C90.3394 15.0553 90.9512 16.1417 90.9512 17.7901C90.9512 19.4198 90.2467 20.4126 89.0973 20.4126Z" fill="#999999"/>
<path d="M98.9306 22.7728C101.415 22.7728 103.25 21.6863 103.25 19.5884C103.25 17.1345 101.285 16.7037 99.6166 16.4227C98.4116 16.1979 97.3363 16.1043 97.3363 15.4299C97.3363 14.8305 97.911 14.5495 98.6526 14.5495C99.4868 14.5495 100.062 14.8118 100.173 15.6734H102.954C102.805 13.7815 101.359 12.6014 98.6711 12.6014C96.4279 12.6014 94.574 13.6504 94.574 15.6734C94.574 17.9212 96.3352 18.3708 97.9852 18.6518C99.2458 18.8766 100.395 18.9702 100.395 19.8319C100.395 20.45 99.8205 20.7872 98.9121 20.7872C97.911 20.7872 97.2807 20.3189 97.1695 19.3636H94.3145C94.4071 21.4803 96.1498 22.7728 98.9306 22.7728Z" fill="#999999"/>
<path d="M107.355 22.7541C108.671 22.7541 109.505 22.2296 110.191 21.293H110.247V22.4731H113.139V12.8824H110.117V18.2397C110.117 19.3823 109.487 20.1691 108.448 20.1691C107.484 20.1691 107.021 19.5884 107.021 18.5394V12.8824H104.018V19.1763C104.018 21.3117 105.167 22.7541 107.355 22.7541Z" fill="#999999"/>
<path d="M114.453 22.4731H117.475V17.0971C117.475 15.9544 118.031 15.149 118.977 15.149C119.885 15.149 120.311 15.7484 120.311 16.7786V22.4731H123.333V17.0971C123.333 15.9544 123.871 15.149 124.835 15.149C125.743 15.149 126.17 15.7484 126.17 16.7786V22.4731H129.192V16.2354C129.192 14.0812 128.116 12.6014 125.966 12.6014C124.742 12.6014 123.723 13.1259 122.981 14.2873H122.944C122.462 13.2571 121.516 12.6014 120.274 12.6014C118.902 12.6014 117.994 13.2571 117.401 14.2498H117.345V12.8824H114.453V22.4731Z" fill="#999999"/>
<path fill-rule="evenodd" clip-rule="evenodd" d="M7.18472 3.03722C6.0796 3.81798 5.08028 4.74111 4.21277 5.78026C7.7578 5.44772 12.2616 5.99072 17.4905 8.63239C23.0743 11.4532 27.5706 11.5486 30.6998 10.9387C30.4159 10.0701 30.0584 9.23531 29.635 8.44171C26.0529 8.82345 21.4606 8.31816 16.1088 5.61447C12.7103 3.89756 9.71454 3.1903 7.18472 3.03722ZM27.5425 5.43236C24.7137 2.23888 20.6028 0.229126 16.0272 0.229126C14.6835 0.229126 13.3798 0.402478 12.1369 0.728232C13.8202 1.19231 15.6084 1.87126 17.4905 2.82211C21.4089 4.80163 24.7918 5.439 27.5425 5.43236ZM31.3688 13.9876C27.5885 14.7419 22.3681 14.587 16.1088 11.4247C10.257 8.4684 5.59942 8.50563 2.4582 9.21096C2.29607 9.24733 2.13774 9.28557 1.98324 9.32538C1.57198 10.2291 1.2437 11.1794 1.00815 12.1663C1.25973 12.0984 1.51969 12.0338 1.78791 11.9736C5.59875 11.1179 10.9831 11.1551 17.4905 14.4426C23.3424 17.399 27.9999 17.3618 31.1412 16.6564C31.2488 16.6323 31.3549 16.6073 31.4592 16.5816C31.4706 16.3355 31.4763 16.0878 31.4763 15.8389C31.4763 15.2125 31.4398 14.5948 31.3688 13.9876ZM30.9547 19.8758C27.211 20.5371 22.1427 20.2833 16.1088 17.235C10.257 14.2787 5.59942 14.3159 2.4582 15.0212C1.76095 15.1777 1.1337 15.3684 0.580388 15.5697C0.57888 15.6592 0.578125 15.749 0.578125 15.8389C0.578125 24.4599 7.49491 31.4486 16.0272 31.4486C23.1779 31.4486 29.1939 26.5401 30.9547 19.8758Z" fill="#999999"/>
</g>
<defs>
<clipPath id="clip0_1_712">
<rect width="129" height="32" fill="white" transform="translate(0.5)"/>
</clipPath>
</defs>
</svg>
