<svg width="132" height="32" viewBox="0 0 132 32" fill="none" xmlns="http://www.w3.org/2000/svg">
<g clip-path="url(#clip0_1_761)">
<path d="M39.9243 22.3643H49.1889V19.6215H43.2171V9.29004H39.9243V22.3643Z" fill="#999999"/>
<path d="M54.6774 20.5358C53.3566 20.5358 52.6682 19.4021 52.6682 17.7015C52.6682 16.001 53.3566 14.849 54.6774 14.849C55.9983 14.849 56.7052 16.001 56.7052 17.7015C56.7052 19.4021 55.9983 20.5358 54.6774 20.5358ZM54.696 22.657C57.7656 22.657 59.7748 20.5175 59.7748 17.7015C59.7748 14.8855 57.7656 12.7461 54.696 12.7461C51.645 12.7461 49.5986 14.8855 49.5986 17.7015C49.5986 20.5175 51.645 22.657 54.696 22.657Z" fill="#999999"/>
<path d="M65.0879 25.6009C66.5018 25.6009 67.7483 25.2901 68.5854 24.5586C69.3482 23.8821 69.8505 22.8581 69.8505 21.4501V13.0021H66.9483V14.0078H66.9111C66.353 13.2215 65.4972 12.7278 64.2322 12.7278C61.8695 12.7278 60.2324 14.6661 60.2324 17.4089C60.2324 20.2798 62.223 21.8524 64.3624 21.8524C65.5158 21.8524 66.2414 21.3952 66.7995 20.7735H66.8739V21.7061C66.8739 22.8398 66.3344 23.4981 65.0507 23.4981C64.0462 23.4981 63.5439 23.0775 63.3764 22.5838H60.4371C60.7347 24.5404 62.4648 25.6009 65.0879 25.6009ZM65.0693 19.6398C63.9345 19.6398 63.1904 18.7255 63.1904 17.3175C63.1904 15.8912 63.9345 14.9769 65.0693 14.9769C66.3344 14.9769 67.0041 16.0375 67.0041 17.2992C67.0041 18.6158 66.3902 19.6398 65.0693 19.6398Z" fill="#999999"/>
<path d="M75.818 20.5358C74.4972 20.5358 73.8088 19.4021 73.8088 17.7015C73.8088 16.001 74.4972 14.849 75.818 14.849C77.1389 14.849 77.8458 16.001 77.8458 17.7015C77.8458 19.4021 77.1389 20.5358 75.818 20.5358ZM75.8366 22.657C78.9062 22.657 80.9154 20.5175 80.9154 17.7015C80.9154 14.8855 78.9062 12.7461 75.8366 12.7461C72.7857 12.7461 70.7393 14.8855 70.7393 17.7015C70.7393 20.5175 72.7857 22.657 75.8366 22.657Z" fill="#999999"/>
<path d="M81.8008 22.3643H84.8332V13.002H81.8008V22.3643ZM81.8008 11.7038H84.8332V9.29004H81.8008V11.7038Z" fill="#999999"/>
<path d="M86.1494 25.4546H89.1818V21.3952H89.219C89.8143 22.1815 90.6887 22.6569 91.9165 22.6569C94.4094 22.6569 96.0651 20.7186 96.0651 17.6832C96.0651 14.8672 94.521 12.7278 91.9909 12.7278C90.6887 12.7278 89.7585 13.2946 89.1074 14.1358H89.0516V13.0021H86.1494V25.4546ZM91.1352 20.3529C89.8329 20.3529 89.0888 19.3106 89.0888 17.7929C89.0888 16.2752 89.7585 15.1232 91.0793 15.1232C92.3816 15.1232 92.9955 16.1838 92.9955 17.7929C92.9955 19.3838 92.2886 20.3529 91.1352 20.3529Z" fill="#999999"/>
<path d="M101.002 22.6569C103.495 22.6569 105.337 21.5964 105.337 19.5484C105.337 17.1529 103.365 16.7324 101.69 16.4581C100.481 16.2386 99.402 16.1472 99.402 15.4889C99.402 14.9038 99.9787 14.6295 100.723 14.6295C101.56 14.6295 102.137 14.8855 102.248 15.7266H105.039C104.89 13.8798 103.439 12.7278 100.741 12.7278C98.4904 12.7278 96.6301 13.7518 96.6301 15.7266C96.6301 17.9209 98.3974 18.3598 100.053 18.6341C101.318 18.8535 102.472 18.9449 102.472 19.7861C102.472 20.3895 101.895 20.7186 100.983 20.7186C99.9787 20.7186 99.3462 20.2615 99.2346 19.3289H96.3696C96.4626 21.3952 98.2114 22.6569 101.002 22.6569Z" fill="#999999"/>
<path d="M109.456 22.6386C110.776 22.6386 111.614 22.1266 112.302 21.2124H112.358V22.3644H115.26V13.0021H112.227V18.2318C112.227 19.3472 111.595 20.1152 110.553 20.1152C109.586 20.1152 109.121 19.5484 109.121 18.5244V13.0021H106.107V19.1461C106.107 21.2306 107.26 22.6386 109.456 22.6386Z" fill="#999999"/>
<path d="M116.579 22.3644H119.611V17.1164C119.611 16.0009 120.169 15.2146 121.118 15.2146C122.029 15.2146 122.457 15.7998 122.457 16.8055V22.3644H125.49V17.1164C125.49 16.0009 126.029 15.2146 126.997 15.2146C127.908 15.2146 128.336 15.7998 128.336 16.8055V22.3644H131.368V16.2752C131.368 14.1724 130.289 12.7278 128.131 12.7278C126.904 12.7278 125.88 13.2398 125.136 14.3735H125.099C124.615 13.3678 123.667 12.7278 122.42 12.7278C121.043 12.7278 120.132 13.3678 119.537 14.3369H119.481V13.0021H116.579V22.3644Z" fill="#999999"/>
<path fill-rule="evenodd" clip-rule="evenodd" d="M16.5334 0.73291C25.2629 0.73291 32.3396 7.6887 32.3396 16.2691C32.3396 24.8496 25.2629 31.8054 16.5334 31.8054C7.80376 31.8054 0.727051 24.8496 0.727051 16.2691C0.727051 7.6887 7.80376 0.73291 16.5334 0.73291ZM31.7329 16.2691C31.7329 8.01807 24.9278 1.32919 16.5334 1.32919C15.8562 1.32919 15.1895 1.37271 14.5357 1.45706C14.9581 1.42077 15.3855 1.40224 15.8174 1.40224C23.8388 1.40224 30.3415 7.79376 30.3415 15.6781C30.3415 23.5624 23.8388 29.9539 15.8174 29.9539C8.22336 29.9539 1.99054 24.2252 1.34807 16.9246C1.69708 24.8716 8.36222 31.2091 16.5334 31.2091C24.9278 31.2091 31.7329 24.5202 31.7329 16.2691ZM29.7348 15.6781C29.7348 8.12306 23.5038 1.99853 15.8174 1.99853C15.1934 1.99853 14.5788 2.03891 13.9765 2.11715C14.3474 2.08647 14.7226 2.07082 15.1016 2.07082C22.4148 2.07082 28.3433 7.89807 28.3433 15.0863C28.3433 22.2745 22.4148 28.1017 15.1016 28.1017C8.18679 28.1017 2.50991 22.892 1.91198 16.2481C2.21599 23.5388 8.3254 29.3576 15.8174 29.3576C23.5038 29.3576 29.7348 23.2331 29.7348 15.6781ZM15.1016 2.66711C22.0797 2.66711 27.7367 8.22736 27.7367 15.0863C27.7367 21.9452 22.0797 27.5054 15.1016 27.5054C8.28517 27.5054 2.72939 22.1998 2.47565 15.5608C3.02348 21.5532 8.14666 26.2495 14.3858 26.2495C20.9903 26.2495 26.3444 20.9869 26.3444 14.4952C26.3444 8.00344 20.9903 2.7409 14.3858 2.7409C14.0441 2.7409 13.7058 2.75498 13.3714 2.78259C13.9371 2.70645 14.5146 2.66711 15.1016 2.66711ZM25.7377 14.4952C25.7377 8.33281 20.6553 3.33719 14.3858 3.33719C13.8561 3.33719 13.3348 3.37284 12.8244 3.44186C13.1031 3.42042 13.3848 3.4095 13.6691 3.4095C19.5655 3.4095 24.3455 8.10774 24.3455 13.9034C24.3455 19.699 19.5655 24.3973 13.6691 24.3973C8.11934 24.3973 3.5586 20.2351 3.04164 14.9132C3.2653 20.8819 8.25866 25.6532 14.3858 25.6532C20.6553 25.6532 25.7377 20.6576 25.7377 14.4952ZM13.6691 4.00578C19.2304 4.00578 23.7388 8.43712 23.7388 13.9034C23.7388 19.3697 19.2304 23.801 13.6691 23.801C8.21738 23.801 3.77753 19.5426 3.60472 14.2252C4.07146 18.8959 8.07881 22.5451 12.9533 22.5451C18.1415 22.5451 22.3473 18.4111 22.3473 13.3116C22.3473 8.21205 18.1415 4.07808 12.9533 4.07808C12.7154 4.07808 12.4795 4.08677 12.246 4.10385C12.711 4.03921 13.186 4.00578 13.6691 4.00578ZM21.7407 13.3116C21.7407 8.54134 17.8064 4.67437 12.9533 4.67437C12.5103 4.67437 12.0749 4.70659 11.6495 4.76877C11.8437 4.75511 12.0398 4.74815 12.2375 4.74815C16.717 4.74815 20.3484 8.3175 20.3484 12.7205C20.3484 17.1235 16.717 20.6928 12.2375 20.6928C8.03989 20.6928 4.58707 17.5587 4.16901 13.5413C4.29295 18.2053 8.17836 21.9488 12.9533 21.9488C17.8064 21.9488 21.7407 18.0818 21.7407 13.3116ZM12.2375 5.34444C16.382 5.34444 19.7417 8.64679 19.7417 12.7205C19.7417 16.7942 16.382 20.0965 12.2375 20.0965C8.14571 20.0965 4.81883 16.8777 4.73482 12.8757C5.1128 16.231 8.00717 18.8406 11.5216 18.8406C15.293 18.8406 18.3502 15.8356 18.3502 12.1287C18.3502 8.4218 15.293 5.41674 11.5216 5.41674C11.3774 5.41674 11.2342 5.42113 11.0922 5.42979C11.4656 5.37359 11.8481 5.34444 12.2375 5.34444ZM17.7436 12.1287C17.7436 8.7511 14.958 6.01303 11.5216 6.01303C11.1766 6.01303 10.838 6.04064 10.5082 6.09373C10.6065 6.08864 10.7054 6.08607 10.805 6.08607C13.8681 6.08607 16.3513 8.52679 16.3513 11.5376C16.3513 14.5484 13.8681 16.9892 10.805 16.9892C7.97266 16.9892 5.63618 14.9023 5.30017 12.2076C5.34319 15.5489 8.11216 18.2444 11.5216 18.2444C14.958 18.2444 17.7436 15.5063 17.7436 12.1287ZM10.805 6.68235C13.5331 6.68235 15.7447 8.85609 15.7447 11.5376C15.7447 14.2191 13.5331 16.3928 10.805 16.3928C8.0769 16.3928 5.86534 14.2191 5.86534 11.5376C5.86534 11.5312 5.86535 11.5247 5.86538 11.5183C6.14941 13.5618 7.93222 15.1362 10.0892 15.1362C12.4437 15.1362 14.3524 13.2601 14.3524 10.9458C14.3524 8.63148 12.4437 6.75541 10.0892 6.75541C10.0359 6.75541 9.9829 6.75636 9.93011 6.75827C10.214 6.70838 10.5064 6.68235 10.805 6.68235ZM13.7457 10.9458C13.7457 8.96085 12.1087 7.35169 10.0892 7.35169C8.06968 7.35169 6.43257 8.96085 6.43257 10.9458C6.43257 12.9308 8.06968 14.5399 10.0892 14.5399C12.1087 14.5399 13.7457 12.9308 13.7457 10.9458Z" fill="#999999"/>
</g>
<defs>
<clipPath id="clip0_1_761">
<rect width="131" height="32" fill="white" transform="translate(0.5)"/>
</clipPath>
</defs>
</svg>
