<svg width="133" height="32" viewBox="0 0 133 32" fill="none" xmlns="http://www.w3.org/2000/svg">
<g clip-path="url(#clip0_1_750)">
<path d="M40.3154 22.8865H49.5958V20.0767H43.6139V9.49329H40.3154V22.8865Z" fill="#999999"/>
<path d="M55.0943 21.0133C53.7712 21.0133 53.0817 19.8519 53.0817 18.1099C53.0817 16.3678 53.7712 15.1877 55.0943 15.1877C56.4174 15.1877 57.1255 16.3678 57.1255 18.1099C57.1255 19.8519 56.4174 21.0133 55.0943 21.0133ZM55.1129 23.1862C58.1877 23.1862 60.2003 20.9945 60.2003 18.1099C60.2003 15.2252 58.1877 13.0336 55.1129 13.0336C52.0567 13.0336 50.0068 15.2252 50.0068 18.1099C50.0068 20.9945 52.0567 23.1862 55.1129 23.1862Z" fill="#999999"/>
<path d="M65.5225 26.2019C66.9388 26.2019 68.1874 25.8835 69.0259 25.1342C69.79 24.4411 70.2931 23.3921 70.2931 21.9498V13.2957H67.386V14.326H67.3488C66.7897 13.5205 65.9325 13.0148 64.6653 13.0148C62.2986 13.0148 60.6587 15.0003 60.6587 17.8101C60.6587 20.751 62.6527 22.3619 64.7957 22.3619C65.9511 22.3619 66.6779 21.8936 67.237 21.2567H67.3115V22.212C67.3115 23.3734 66.7711 24.0477 65.4852 24.0477C64.4789 24.0477 63.9758 23.6169 63.8081 23.1112H60.8637C61.1618 25.1155 62.8949 26.2019 65.5225 26.2019ZM65.5039 20.0954C64.3671 20.0954 63.6217 19.1588 63.6217 17.7164C63.6217 16.2554 64.3671 15.3188 65.5039 15.3188C66.7711 15.3188 67.4419 16.4052 67.4419 17.6977C67.4419 19.0464 66.827 20.0954 65.5039 20.0954Z" fill="#999999"/>
<path d="M76.2705 21.0133C74.9474 21.0133 74.2579 19.8519 74.2579 18.1099C74.2579 16.3678 74.9474 15.1877 76.2705 15.1877C77.5936 15.1877 78.3015 16.3678 78.3015 18.1099C78.3015 19.8519 77.5936 21.0133 76.2705 21.0133ZM76.2892 23.1862C79.3637 23.1862 81.3763 20.9945 81.3763 18.1099C81.3763 15.2252 79.3637 13.0336 76.2892 13.0336C73.233 13.0336 71.1831 15.2252 71.1831 18.1099C71.1831 20.9945 73.233 23.1862 76.2892 23.1862Z" fill="#999999"/>
<path d="M82.2637 22.8865H85.3012V13.2958H82.2637V22.8865ZM82.2637 11.9659H85.3012V9.49329H82.2637V11.9659Z" fill="#999999"/>
<path d="M86.6191 26.052H89.6567V21.8936H89.694C90.2903 22.6991 91.1661 23.1861 92.3961 23.1861C94.8932 23.1861 96.5518 21.2005 96.5518 18.0911C96.5518 15.2064 95.005 13.0148 92.4706 13.0148C91.1661 13.0148 90.2344 13.5955 89.5821 14.4571H89.5262V13.2957H86.6191V26.052ZM91.6134 20.8259C90.3089 20.8259 89.5635 19.7582 89.5635 18.2035C89.5635 16.6487 90.2344 15.4686 91.5575 15.4686C92.862 15.4686 93.4769 16.5551 93.4769 18.2035C93.4769 19.8331 92.7688 20.8259 91.6134 20.8259Z" fill="#999999"/>
<path d="M101.497 23.1861C103.994 23.1861 105.839 22.0996 105.839 20.0017C105.839 17.5478 103.864 17.117 102.187 16.836C100.975 16.6113 99.8945 16.5176 99.8945 15.8433C99.8945 15.2438 100.472 14.9629 101.218 14.9629C102.056 14.9629 102.634 15.2251 102.746 16.0868H105.541C105.392 14.1949 103.938 13.0148 101.236 13.0148C98.9814 13.0148 97.1178 14.0637 97.1178 16.0868C97.1178 18.3346 98.8882 18.7841 100.547 19.0651C101.814 19.2899 102.969 19.3836 102.969 20.2452C102.969 20.8634 102.392 21.2005 101.478 21.2005C100.472 21.2005 99.8386 20.7322 99.7268 19.7769H96.8569C96.9501 21.8936 98.7018 23.1861 101.497 23.1861Z" fill="#999999"/>
<path d="M109.965 23.1674C111.288 23.1674 112.127 22.6429 112.816 21.7063H112.872V22.8864H115.779V13.2958H112.742V18.653C112.742 19.7957 112.108 20.5824 111.065 20.5824C110.096 20.5824 109.63 20.0017 109.63 18.9528V13.2958H106.611V19.5896C106.611 21.725 107.766 23.1674 109.965 23.1674Z" fill="#999999"/>
<path d="M117.101 22.8864H120.139V17.5104C120.139 16.3677 120.698 15.5623 121.648 15.5623C122.561 15.5623 122.99 16.1617 122.99 17.1919V22.8864H126.027V17.5104C126.027 16.3677 126.568 15.5623 127.537 15.5623C128.45 15.5623 128.879 16.1617 128.879 17.1919V22.8864H131.916V16.6487C131.916 14.4946 130.835 13.0148 128.674 13.0148C127.444 13.0148 126.419 13.5393 125.673 14.7006H125.636C125.152 13.6704 124.201 13.0148 122.953 13.0148C121.574 13.0148 120.66 13.6704 120.064 14.6632H120.008V13.2957H117.101V22.8864Z" fill="#999999"/>
<path fill-rule="evenodd" clip-rule="evenodd" d="M16.108 31.4718C24.6847 31.4718 31.6374 24.4831 31.6374 15.862C31.6374 7.24104 24.6847 0.252319 16.108 0.252319C7.53136 0.252319 0.578613 7.24104 0.578613 15.862C0.578613 24.4831 7.53136 31.4718 16.108 31.4718ZM18.505 12.3129C19.8287 10.9822 19.8287 8.82485 18.505 7.4942C17.1812 6.16356 15.0349 6.16356 13.7111 7.4942C12.3874 8.82485 12.3874 10.9822 13.7111 12.3129L16.108 14.7221L18.505 12.3129ZM19.639 18.2714C20.9628 19.6021 23.109 19.6021 24.4328 18.2714C25.7566 16.9408 25.7566 14.7834 24.4328 13.4528C23.109 12.1222 20.9628 12.1222 19.639 13.4528L17.2421 15.8621L19.639 18.2714ZM18.505 24.23C19.8287 22.8993 19.8287 20.742 18.505 19.4113L16.108 17.002L13.7111 19.4113C12.3874 20.742 12.3874 22.8993 13.7111 24.23C15.0349 25.5606 17.1812 25.5606 18.505 24.23ZM7.7832 18.2714C6.45944 16.9408 6.45944 14.7834 7.7832 13.4528C9.10702 12.1222 11.2533 12.1222 12.5771 13.4528L14.974 15.8621L12.5771 18.2714C11.2533 19.6021 9.10702 19.6021 7.7832 18.2714Z" fill="#999999"/>
</g>
<defs>
<clipPath id="clip0_1_750">
<rect width="132" height="32" fill="white" transform="translate(0.5)"/>
</clipPath>
</defs>
</svg>
