<svg width="132" height="32" viewBox="0 0 132 32" fill="none" xmlns="http://www.w3.org/2000/svg">
<g clip-path="url(#clip0_1_739)">
<path d="M40.4629 21.9614H49.673V19.1517H43.7364V8.56824H40.4629V21.9614Z" fill="#999999"/>
<path d="M55.1295 20.0882C53.8164 20.0882 53.1321 18.9269 53.1321 17.1848C53.1321 15.4428 53.8164 14.2627 55.1295 14.2627C56.4425 14.2627 57.1453 15.4428 57.1453 17.1848C57.1453 18.9269 56.4425 20.0882 55.1295 20.0882ZM55.148 22.2611C58.1995 22.2611 60.1968 20.0695 60.1968 17.1848C60.1968 14.3001 58.1995 12.1085 55.148 12.1085C52.1149 12.1085 50.0806 14.3001 50.0806 17.1848C50.0806 20.0695 52.1149 22.2611 55.148 22.2611Z" fill="#999999"/>
<path d="M65.4788 25.2768C66.8844 25.2768 68.1235 24.9584 68.9557 24.2091C69.714 23.5161 70.2133 22.4671 70.2133 21.0247V12.3707H67.3282V13.4009H67.2912C66.7364 12.5955 65.8857 12.0897 64.6281 12.0897C62.2793 12.0897 60.6519 14.0753 60.6519 16.885C60.6519 19.8259 62.6307 21.4368 64.7576 21.4368C65.9042 21.4368 66.6255 20.9685 67.1803 20.3317H67.2543V21.287C67.2543 22.4484 66.7179 23.1227 65.4418 23.1227C64.4432 23.1227 63.9438 22.6919 63.7774 22.1861H60.8553C61.1512 24.1904 62.8711 25.2768 65.4788 25.2768ZM65.4603 19.1703C64.3322 19.1703 63.5924 18.2337 63.5924 16.7914C63.5924 15.3303 64.3322 14.3937 65.4603 14.3937C66.7179 14.3937 67.3837 15.4802 67.3837 16.7726C67.3837 18.1213 66.7734 19.1703 65.4603 19.1703Z" fill="#999999"/>
<path d="M76.1456 20.0882C74.8325 20.0882 74.1482 18.9269 74.1482 17.1848C74.1482 15.4428 74.8325 14.2627 76.1456 14.2627C77.4587 14.2627 78.1614 15.4428 78.1614 17.1848C78.1614 18.9269 77.4587 20.0882 76.1456 20.0882ZM76.1641 22.2611C79.2156 22.2611 81.213 20.0695 81.213 17.1848C81.213 14.3001 79.2156 12.1085 76.1641 12.1085C73.131 12.1085 71.0967 14.3001 71.0967 17.1848C71.0967 20.0695 73.131 22.2611 76.1641 22.2611Z" fill="#999999"/>
<path d="M82.0928 21.9614H85.1073V12.3708H82.0928V21.9614ZM82.0928 11.0408H85.1073V8.56824H82.0928V11.0408Z" fill="#999999"/>
<path d="M86.416 25.127H89.4306V20.9685H89.4675C90.0594 21.774 90.9286 22.261 92.1492 22.261C94.6274 22.261 96.2734 20.2755 96.2734 17.166C96.2734 14.2813 94.7384 12.0897 92.2232 12.0897C90.9286 12.0897 90.0039 12.6704 89.3566 13.5321H89.3011V12.3707H86.416V25.127ZM91.3724 19.9008C90.0779 19.9008 89.3381 18.8331 89.3381 17.2784C89.3381 15.7237 90.0039 14.5436 91.317 14.5436C92.6115 14.5436 93.2218 15.63 93.2218 17.2784C93.2218 18.9081 92.5191 19.9008 91.3724 19.9008Z" fill="#999999"/>
<path d="M101.181 22.261C103.659 22.261 105.49 21.1746 105.49 19.0766C105.49 16.6228 103.53 16.192 101.865 15.911C100.663 15.6862 99.5907 15.5926 99.5907 14.9182C99.5907 14.3188 100.164 14.0378 100.904 14.0378C101.736 14.0378 102.309 14.3001 102.42 15.1617H105.194C105.046 13.2698 103.604 12.0897 100.922 12.0897C98.6845 12.0897 96.8351 13.1387 96.8351 15.1617C96.8351 17.4095 98.592 17.8591 100.238 18.1401C101.496 18.3648 102.642 18.4585 102.642 19.3202C102.642 19.9383 102.069 20.2755 101.163 20.2755C100.164 20.2755 99.5352 19.8072 99.4243 18.8519H96.5762C96.6686 20.9685 98.4071 22.261 101.181 22.261Z" fill="#999999"/>
<path d="M109.585 22.2423C110.898 22.2423 111.731 21.7178 112.415 20.7813H112.47V21.9614H115.355V12.3707H112.341V17.728C112.341 18.8706 111.712 19.6574 110.676 19.6574C109.715 19.6574 109.252 19.0767 109.252 18.0277V12.3707H106.256V18.6646C106.256 20.8 107.403 22.2423 109.585 22.2423Z" fill="#999999"/>
<path d="M116.666 21.9613H119.681V16.5853C119.681 15.4427 120.235 14.6372 121.179 14.6372C122.085 14.6372 122.51 15.2366 122.51 16.2669V21.9613H125.525V16.5853C125.525 15.4427 126.061 14.6372 127.023 14.6372C127.929 14.6372 128.354 15.2366 128.354 16.2669V21.9613H131.369V15.7237C131.369 13.5695 130.296 12.0897 128.151 12.0897C126.93 12.0897 125.913 12.6142 125.173 13.7756H125.136C124.655 12.7453 123.712 12.0897 122.473 12.0897C121.105 12.0897 120.198 12.7453 119.607 13.7381H119.551V12.3707H116.666V21.9613Z" fill="#999999"/>
<path fill-rule="evenodd" clip-rule="evenodd" d="M16.4391 31.3272C24.9508 31.3272 31.8509 24.3384 31.8509 15.7174C31.8509 7.0964 24.9508 0.107666 16.4391 0.107666C7.92741 0.107666 1.02734 7.0964 1.02734 15.7174C1.02734 24.3384 7.92741 31.3272 16.4391 31.3272ZM21.2471 7.37934C21.4811 6.53736 20.6744 6.03947 19.9376 6.57112L9.65263 13.9922C8.85361 14.5688 8.97929 15.7174 9.84142 15.7174H12.5497V15.6962H17.8281L13.5272 17.2332L11.6312 24.0555C11.3972 24.8975 12.2038 25.3954 12.9407 24.8637L23.2256 17.4427C24.0246 16.8661 23.8989 15.7174 23.0368 15.7174H18.9297L21.2471 7.37934Z" fill="#999999"/>
</g>
<defs>
<clipPath id="clip0_1_739">
<rect width="131" height="32" fill="white" transform="translate(0.5)"/>
</clipPath>
</defs>
</svg>
