<svg width="131" height="32" viewBox="0 0 131 32" fill="none" xmlns="http://www.w3.org/2000/svg">
<g clip-path="url(#clip0_1_723)">
<path d="M38.6313 22.597H47.8799V19.7873H41.9185V9.20386H38.6313V22.597Z" fill="#999999"/>
<path d="M53.3595 20.7238C52.041 20.7238 51.3538 19.5625 51.3538 17.8204C51.3538 16.0784 52.041 14.8983 53.3595 14.8983C54.6781 14.8983 55.3838 16.0784 55.3838 17.8204C55.3838 19.5625 54.6781 20.7238 53.3595 20.7238ZM53.3781 22.8967C56.4424 22.8967 58.4481 20.7051 58.4481 17.8204C58.4481 14.9358 56.4424 12.7441 53.3781 12.7441C50.3324 12.7441 48.2896 14.9358 48.2896 17.8204C48.2896 20.7051 50.3324 22.8967 53.3781 22.8967Z" fill="#999999"/>
<path d="M63.7519 25.9125C65.1634 25.9125 66.4076 25.594 67.2434 24.8448C68.0048 24.1517 68.5062 23.1027 68.5062 21.6604V13.0063H65.6091V14.0366H65.5719C65.0148 13.2311 64.1605 12.7253 62.8976 12.7253C60.5391 12.7253 58.9048 14.7109 58.9048 17.5207C58.9048 20.4615 60.8919 22.0725 63.0276 22.0725C64.1791 22.0725 64.9034 21.6042 65.4605 20.9673H65.5348V21.9226C65.5348 23.084 64.9962 23.7583 63.7148 23.7583C62.7119 23.7583 62.2105 23.3275 62.0434 22.8217H59.1091C59.4062 24.826 61.1334 25.9125 63.7519 25.9125ZM63.7334 19.8059C62.6005 19.8059 61.8576 18.8693 61.8576 17.427C61.8576 15.9659 62.6005 15.0293 63.7334 15.0293C64.9962 15.0293 65.6648 16.1158 65.6648 17.4083C65.6648 18.757 65.0519 19.8059 63.7334 19.8059Z" fill="#999999"/>
<path d="M74.4636 20.7238C73.145 20.7238 72.4578 19.5625 72.4578 17.8204C72.4578 16.0784 73.145 14.8983 74.4636 14.8983C75.7821 14.8983 76.4878 16.0784 76.4878 17.8204C76.4878 19.5625 75.7821 20.7238 74.4636 20.7238ZM74.4821 22.8967C77.5464 22.8967 79.5517 20.7051 79.5517 17.8204C79.5517 14.9358 77.5464 12.7441 74.4821 12.7441C71.4364 12.7441 69.3936 14.9358 69.3936 17.8204C69.3936 20.7051 71.4364 22.8967 74.4821 22.8967Z" fill="#999999"/>
<path d="M80.436 22.597H83.4632V13.0064H80.436V22.597ZM80.436 11.6764H83.4632V9.20386H80.436V11.6764Z" fill="#999999"/>
<path d="M84.7764 25.7626H87.8035V21.6042H87.8407C88.4349 22.4096 89.3078 22.8967 90.5335 22.8967C93.0221 22.8967 94.6749 20.9111 94.6749 17.8016C94.6749 14.917 93.1335 12.7253 90.6078 12.7253C89.3078 12.7253 88.3792 13.306 87.7292 14.1677H87.6735V13.0063H84.7764V25.7626ZM89.7535 20.5365C88.4535 20.5365 87.7107 19.4688 87.7107 17.914C87.7107 16.3593 88.3792 15.1792 89.6978 15.1792C90.9978 15.1792 91.6106 16.2656 91.6106 17.914C91.6106 19.5437 90.9049 20.5365 89.7535 20.5365Z" fill="#999999"/>
<path d="M99.6033 22.8967C102.092 22.8967 103.93 21.8102 103.93 19.7123C103.93 17.2584 101.962 16.8276 100.29 16.5466C99.0833 16.3218 98.0061 16.2282 98.0061 15.5538C98.0061 14.9544 98.5819 14.6734 99.3247 14.6734C100.16 14.6734 100.736 14.9357 100.848 15.7973H103.633C103.485 13.9054 102.036 12.7253 99.3433 12.7253C97.0961 12.7253 95.239 13.7743 95.239 15.7973C95.239 18.0451 97.0033 18.4947 98.6561 18.7757C99.919 19.0005 101.07 19.0941 101.07 19.9558C101.07 20.5739 100.495 20.9111 99.5847 20.9111C98.5819 20.9111 97.9504 20.4428 97.839 19.4875H94.979C95.0719 21.6042 96.8176 22.8967 99.6033 22.8967Z" fill="#999999"/>
<path d="M108.043 22.878C109.361 22.878 110.197 22.3535 110.884 21.4169H110.94V22.597H113.837V13.0063H110.81V18.3636C110.81 19.5062 110.178 20.293 109.138 20.293C108.173 20.293 107.708 19.7123 107.708 18.6633V13.0063H104.7V19.3002C104.7 21.4356 105.851 22.878 108.043 22.878Z" fill="#999999"/>
<path d="M115.154 22.597H118.181V17.221C118.181 16.0783 118.738 15.2729 119.685 15.2729C120.595 15.2729 121.022 15.8723 121.022 16.9025V22.597H124.05V17.221C124.05 16.0783 124.588 15.2729 125.554 15.2729C126.464 15.2729 126.891 15.8723 126.891 16.9025V22.597H129.918V16.3593C129.918 14.2051 128.841 12.7253 126.687 12.7253C125.461 12.7253 124.44 13.2498 123.697 14.4112H123.66C123.177 13.381 122.23 12.7253 120.985 12.7253C119.611 12.7253 118.701 13.381 118.107 14.3737H118.051V13.0063H115.154V22.597Z" fill="#999999"/>
<path d="M20.1624 1.54298L17.119 0.720459L14.5543 10.3748L12.2389 1.65879L9.19539 2.48132L11.6971 11.8983L5.4659 5.61332L3.23796 7.86049L10.0728 14.7544L1.56109 12.454L0.745605 15.5236L10.0457 18.0371C9.93925 17.5739 9.88292 17.0912 9.88292 16.5953C9.88292 13.085 12.7042 10.2393 16.1845 10.2393C19.6648 10.2393 22.4861 13.085 22.4861 16.5953C22.4861 17.088 22.4305 17.5677 22.3253 18.0282L30.7774 20.3125L31.5928 17.2428L22.2557 14.7193L30.768 12.4188L29.9525 9.34912L20.6158 11.8724L26.847 5.58752L24.619 3.34034L17.879 10.1386L20.1624 1.54298Z" fill="#999999"/>
<path d="M22.3172 18.064C22.0562 19.1766 21.5054 20.1762 20.7495 20.9771L26.8727 27.1531L29.1006 24.906L22.3172 18.064Z" fill="#999999"/>
<path d="M20.6874 21.0416C19.9224 21.8297 18.9557 22.4178 17.8716 22.7208L20.0997 31.108L23.1431 30.2854L20.6874 21.0416Z" fill="#999999"/>
<path d="M17.7578 22.7515C17.2548 22.882 16.7276 22.9513 16.1843 22.9513C15.6023 22.9513 15.0386 22.8717 14.5036 22.7227L12.2734 31.1174L15.3168 31.9399L17.7578 22.7515Z" fill="#999999"/>
<path d="M14.3964 22.6917C13.3288 22.3736 12.3793 21.778 11.6299 20.9877L5.4917 27.1789L7.71964 29.4261L14.3964 22.6917Z" fill="#999999"/>
<path d="M11.5783 20.9329C10.8418 20.1376 10.3054 19.1514 10.05 18.0559L1.57031 20.3477L2.38579 23.4173L11.5783 20.9329Z" fill="#999999"/>
</g>
<defs>
<clipPath id="clip0_1_723">
<rect width="130" height="32" fill="white" transform="translate(0.5)"/>
</clipPath>
</defs>
</svg>
