<svg width="30" height="31" viewBox="0 0 30 31" fill="none" xmlns="http://www.w3.org/2000/svg">
<path d="M15 27.627C12.1042 26.8978 9.71333 25.2361 7.8275 22.642C5.94167 20.0478 4.99917 17.1678 5 14.002V6.37695L15 2.62695L25 6.37695V14.002C25 17.1686 24.0575 20.049 22.1725 22.6432C20.2875 25.2374 17.8967 26.8986 15 27.627ZM15 25.002C17.0208 24.377 18.7083 23.1424 20.0625 21.2982C21.4167 19.454 22.2083 17.397 22.4375 15.127H15V5.2832L7.5 8.0957V14.5645C7.5 14.7103 7.52083 14.8978 7.5625 15.127H15V25.002Z" fill="#9DFF3A"/>
</svg>
