<svg width="30" height="31" viewBox="0 0 30 31" fill="none" xmlns="http://www.w3.org/2000/svg">
<path d="M15 27.627C15.305 27.627 15.5887 27.4857 16.1575 27.202L20.72 24.9307C22.7413 23.927 23.75 23.4232 23.75 22.627V12.627M15 27.627C14.695 27.627 14.4113 27.4857 13.8425 27.202L9.28 24.9307C7.25875 23.927 6.25 23.4232 6.25 22.627V12.627M15 27.627V17.627M23.75 12.627C23.75 11.8307 22.74 11.3282 20.7212 10.3232L16.1575 8.0507C15.5875 7.7682 15.305 7.62695 15 7.62695M23.75 12.627C23.75 13.4232 22.74 13.9257 20.7212 14.9307L16.1575 17.2032C15.5887 17.4857 15.305 17.627 15 17.627M6.25 12.627C6.25 11.8307 7.25875 11.327 9.28 10.3232L13.8425 8.05195C14.4113 7.7682 14.695 7.62695 15 7.62695M6.25 12.627C6.25 13.4232 7.26 13.9257 9.27875 14.9307L13.8425 17.2032C14.4113 17.4857 14.695 17.627 15 17.627M15 7.62695V2.62695M27.5 26.377L23.75 23.252M2.5 26.377L6.25 23.252" stroke="#9DFF3A" stroke-width="1.875" stroke-linecap="round" stroke-linejoin="round"/>
</svg>
