<svg width="107" height="32" viewBox="0 0 107 32" fill="none" xmlns="http://www.w3.org/2000/svg">
<path fill-rule="evenodd" clip-rule="evenodd" d="M16 32C24.8366 32 32 24.8365 32 16C32 7.16345 24.8366 0 16 0C7.16343 0 0 7.16345 0 16C0 24.8365 7.16343 32 16 32ZM20.9915 7.45347C21.2344 6.59044 20.3969 6.0801 19.632 6.62504L8.95449 14.2317C8.12497 14.8226 8.25545 16 9.15049 16H11.9622V15.9782H17.442L12.977 17.5537L11.0086 24.5465C10.7656 25.4096 11.6031 25.9199 12.368 25.3749L23.0455 17.7684C23.8751 17.1774 23.7445 16 22.8495 16H18.5857L20.9915 7.45347Z" fill="#9DFF3A"/>
<path d="M45.1703 8.1H47.9643L56.6763 19.936L55.9063 20.2V8.1H58.7663V23.5H55.9503L47.2823 11.686L48.0523 11.422V23.5H45.1703V8.1ZM70.3832 16.746C70.3538 16.13 70.2145 15.6093 69.9652 15.184C69.7158 14.744 69.3638 14.4067 68.9092 14.172C68.4692 13.9227 67.9632 13.798 67.3912 13.798C66.7312 13.798 66.1592 13.952 65.6752 14.26C65.1912 14.568 64.8098 15.0007 64.5312 15.558C64.2672 16.1153 64.1352 16.7607 64.1352 17.494C64.1352 18.3007 64.2818 18.9973 64.5752 19.584C64.8832 20.1707 65.3012 20.6253 65.8292 20.948C66.3572 21.256 66.9658 21.41 67.6552 21.41C68.9018 21.41 69.9652 20.9627 70.8452 20.068L72.3632 21.586C71.7765 22.2313 71.0652 22.73 70.2292 23.082C69.3932 23.434 68.4618 23.61 67.4352 23.61C66.2032 23.61 65.1325 23.3607 64.2232 22.862C63.3285 22.3487 62.6245 21.652 62.1112 20.772C61.6125 19.8773 61.3632 18.836 61.3632 17.648C61.3632 16.46 61.6125 15.4187 62.1112 14.524C62.6245 13.6293 63.3285 12.9327 64.2232 12.434C65.1325 11.9353 66.1738 11.6787 67.3472 11.664C68.7405 11.664 69.8625 11.95 70.7132 12.522C71.5785 13.094 72.1945 13.9007 72.5612 14.942C72.9278 15.9687 73.0598 17.1933 72.9572 18.616H63.7172V16.746H70.3832ZM80.6087 11.664C81.826 11.664 82.8967 11.9133 83.8207 12.412C84.7594 12.9107 85.4854 13.6073 85.9987 14.502C86.5267 15.3967 86.7907 16.438 86.7907 17.626C86.7907 18.814 86.5267 19.8553 85.9987 20.75C85.4854 21.6447 84.7594 22.3487 83.8207 22.862C82.8967 23.3607 81.826 23.61 80.6087 23.61C79.3767 23.61 78.2914 23.3607 77.3527 22.862C76.414 22.3487 75.6807 21.6447 75.1527 20.75C74.6394 19.8553 74.3827 18.814 74.3827 17.626C74.3827 16.438 74.6394 15.3967 75.1527 14.502C75.6807 13.6073 76.414 12.9107 77.3527 12.412C78.2914 11.9133 79.3767 11.664 80.6087 11.664ZM80.6087 13.974C79.9487 13.974 79.362 14.1353 78.8487 14.458C78.35 14.766 77.9614 15.1987 77.6827 15.756C77.404 16.2987 77.2647 16.9293 77.2647 17.648C77.2647 18.3813 77.404 19.0267 77.6827 19.584C77.9614 20.1413 78.35 20.574 78.8487 20.882C79.362 21.19 79.9487 21.344 80.6087 21.344C81.254 21.344 81.826 21.19 82.3247 20.882C82.8234 20.574 83.212 20.1413 83.4907 19.584C83.7694 19.0267 83.9087 18.3813 83.9087 17.648C83.9087 16.9293 83.7694 16.2987 83.4907 15.756C83.212 15.1987 82.8234 14.766 82.3247 14.458C81.826 14.1353 81.254 13.974 80.6087 13.974ZM89.3852 8.1H100.011V10.564H92.3332V14.854H99.3072V17.296H92.3332V23.5H89.3852V8.1ZM102.101 11.774H104.961V23.5H102.101V11.774ZM103.509 6.78C103.979 6.78 104.367 6.934 104.675 7.242C104.983 7.55 105.137 7.93867 105.137 8.408C105.137 8.86267 104.983 9.25133 104.675 9.574C104.367 9.882 103.979 10.036 103.509 10.036C103.055 10.036 102.673 9.882 102.365 9.574C102.057 9.25133 101.903 8.86267 101.903 8.408C101.903 7.93867 102.057 7.55 102.365 7.242C102.673 6.934 103.055 6.78 103.509 6.78Z" fill="white"/>
</svg>
